<svg xmlns="http://www.w3.org/2000/svg" viewBox="0 0 128 128" role="img" aria-label="Habit Haven mark">
  <defs>
    <linearGradient id="g" x1="0%" y1="0%" x2="100%" y2="100%">
      <stop offset="0%" stop-color="#AEE6B2"/>
      <stop offset="45%" stop-color="#C8B6FF"/>
      <stop offset="100%" stop-color="#FFECB3"/>
    </linearGradient>
    <linearGradient id="leaf" x1="0%" y1="100%" x2="100%" y2="0%">
      <stop offset="0%" stop-color="#22C55E"/>
      <stop offset="100%" stop-color="#86EFAC"/>
    </linearGradient>
    <filter id="s" x="-20%" y="-20%" width="140%" height="140%">
      <feDropShadow dx="0" dy="4" stdDeviation="6" flood-color="#6B21A8" flood-opacity="0.15"/>
    </filter>
  </defs>
  <rect width="128" height="128" rx="28" fill="url(#g)" filter="url(#s)"/>
  <ellipse cx="64" cy="88" rx="36" ry="10" fill="#4A4A4A" opacity="0.12"/>
  <path d="M64 28c-8 18-28 28-28 48 0 14 12 24 28 24s28-10 28-24c0-20-20-30-28-48z" fill="url(#leaf)" opacity="0.95"/>
  <path d="M64 36c6 12 22 22 22 38" fill="none" stroke="#166534" stroke-width="3" stroke-linecap="round" opacity="0.35"/>
  <circle cx="52" cy="58" r="5" fill="#4A4A4A"/>
  <circle cx="76" cy="58" r="5" fill="#4A4A4A"/>
  <path d="M48 74c8 10 24 10 32 0" fill="none" stroke="#4A4A4A" stroke-width="3" stroke-linecap="round"/>
  <circle cx="64" cy="22" r="6" fill="#FDE047" stroke="#FACC15" stroke-width="2"/>
</svg>
