<svg width="1280" height="640" viewBox="0 0 1280 640" fill="none" xmlns="http://www.w3.org/2000/svg">
  <defs>
    <radialGradient id="g1" cx="0" cy="0" r="1" gradientUnits="userSpaceOnUse" gradientTransform="translate(238 120) rotate(51) scale(520 420)">
      <stop stop-color="#7DD3FC" stop-opacity=".42"/>
      <stop offset="1" stop-color="#7DD3FC" stop-opacity="0"/>
    </radialGradient>
    <radialGradient id="g2" cx="0" cy="0" r="1" gradientUnits="userSpaceOnUse" gradientTransform="translate(1036 44) rotate(131) scale(520 460)">
      <stop stop-color="#C4B5FD" stop-opacity=".34"/>
      <stop offset="1" stop-color="#C4B5FD" stop-opacity="0"/>
    </radialGradient>
    <radialGradient id="g3" cx="0" cy="0" r="1" gradientUnits="userSpaceOnUse" gradientTransform="translate(768 574) rotate(8) scale(560 320)">
      <stop stop-color="#5EEAD4" stop-opacity=".24"/>
      <stop offset="1" stop-color="#5EEAD4" stop-opacity="0"/>
    </radialGradient>
    <linearGradient id="panel" x1="676" x2="1180" y1="120" y2="520" gradientUnits="userSpaceOnUse">
      <stop stop-color="white" stop-opacity=".18"/>
      <stop offset="1" stop-color="white" stop-opacity=".06"/>
    </linearGradient>
    <filter id="blur" x="-20%" y="-20%" width="140%" height="140%">
      <feGaussianBlur stdDeviation="28"/>
    </filter>
  </defs>
  <rect width="1280" height="640" rx="44" fill="#05070B"/>
  <rect width="1280" height="640" rx="44" fill="url(#g1)"/>
  <rect width="1280" height="640" rx="44" fill="url(#g2)"/>
  <rect width="1280" height="640" rx="44" fill="url(#g3)"/>
  <g opacity=".24">
    <path d="M0 124H1280M0 244H1280M0 364H1280M0 484H1280" stroke="white" stroke-opacity=".18"/>
    <path d="M160 0V640M320 0V640M480 0V640M640 0V640M800 0V640M960 0V640M1120 0V640" stroke="white" stroke-opacity=".18"/>
  </g>
  <circle cx="760" cy="222" r="110" fill="#7DD3FC" opacity=".18" filter="url(#blur)"/>
  <circle cx="1070" cy="450" r="124" fill="#5EEAD4" opacity=".14" filter="url(#blur)"/>
  <rect x="64" y="70" width="492" height="54" rx="27" fill="white" fill-opacity=".08" stroke="white" stroke-opacity=".12"/>
  <circle cx="94" cy="97" r="9" fill="#5EEAD4"/>
  <text x="118" y="104" fill="#EAF3FF" font-family="Inter, Segoe UI, Arial, sans-serif" font-size="18" font-weight="650">AI-native developer portfolio</text>
  <text x="64" y="224" fill="#F8FBFF" font-family="Inter, Segoe UI, Arial, sans-serif" font-size="76" font-weight="750" letter-spacing="-1">Cinematic systems</text>
  <text x="64" y="306" fill="#F8FBFF" font-family="Inter, Segoe UI, Arial, sans-serif" font-size="76" font-weight="750" letter-spacing="-1">for the AI era.</text>
  <text x="68" y="365" fill="#AAB7CA" font-family="Inter, Segoe UI, Arial, sans-serif" font-size="24">Next.js 15 • React 19 • Tailwind v4 • Motion • Supabase • AI SDK</text>
  <rect x="68" y="432" width="158" height="48" rx="24" fill="#F8FBFF"/>
  <text x="96" y="463" fill="#05070B" font-family="Inter, Segoe UI, Arial, sans-serif" font-size="16" font-weight="700">Run AI briefing</text>
  <rect x="244" y="432" width="190" height="48" rx="24" fill="white" fill-opacity=".08" stroke="white" stroke-opacity=".16"/>
  <text x="274" y="463" fill="#EAF3FF" font-family="Inter, Segoe UI, Arial, sans-serif" font-size="16" font-weight="650">Explore projects</text>
  <rect x="664" y="106" width="552" height="428" rx="36" fill="url(#panel)" stroke="white" stroke-opacity=".16"/>
  <rect x="700" y="146" width="480" height="116" rx="28" fill="white" fill-opacity=".08" stroke="white" stroke-opacity=".14"/>
  <text x="728" y="188" fill="#AAB7CA" font-family="Inter, Segoe UI, Arial, sans-serif" font-size="16">Live portfolio intelligence</text>
  <text x="728" y="234" fill="#F8FBFF" font-family="Inter, Segoe UI, Arial, sans-serif" font-size="36" font-weight="760">18+</text>
  <text x="878" y="234" fill="#F8FBFF" font-family="Inter, Segoe UI, Arial, sans-serif" font-size="36" font-weight="760">62%</text>
  <text x="1040" y="234" fill="#F8FBFF" font-family="Inter, Segoe UI, Arial, sans-serif" font-size="36" font-weight="760">40+</text>
  <rect x="700" y="290" width="218" height="204" rx="28" fill="white" fill-opacity=".08" stroke="white" stroke-opacity=".14"/>
  <text x="730" y="354" fill="#F8FBFF" font-family="Inter, Segoe UI, Arial, sans-serif" font-size="31" font-weight="720">Architecture</text>
  <text x="730" y="394" fill="#F8FBFF" font-family="Inter, Segoe UI, Arial, sans-serif" font-size="31" font-weight="720">pulse</text>
  <text x="730" y="444" fill="#AAB7CA" font-family="Inter, Segoe UI, Arial, sans-serif" font-size="15">Edge streaming • RSC • AI tools</text>
  <rect x="942" y="290" width="238" height="204" rx="28" fill="white" fill-opacity=".08" stroke="white" stroke-opacity=".14"/>
  <text x="972" y="348" fill="#F8FBFF" font-family="Inter, Segoe UI, Arial, sans-serif" font-size="24" font-weight="720">Portfolio Copilot</text>
  <text x="972" y="390" fill="#AAB7CA" font-family="Inter, Segoe UI, Arial, sans-serif" font-size="16">Streaming recruiter</text>
  <text x="972" y="418" fill="#AAB7CA" font-family="Inter, Segoe UI, Arial, sans-serif" font-size="16">briefings and project</text>
  <text x="972" y="446" fill="#AAB7CA" font-family="Inter, Segoe UI, Arial, sans-serif" font-size="16">intelligence.</text>
</svg>
