<svg version="1.0" viewBox="0 0 128 128" xmlns="http://www.w3.org/2000/svg" role="img" aria-label="Django">
  <title>Django</title>
  <defs>
    <linearGradient id="django-grad-light" x1="0%" y1="0%" x2="100%" y2="100%">
      <stop offset="0%" stop-color="#092e20"/>
      <stop offset="100%" stop-color="#165039"/>
    </linearGradient>
  </defs>
  <rect width="128" height="128" rx="28" fill="url(#django-grad-light)"/>
  <g transform="translate(19, 16) scale(0.7)" fill="#ffffff">
    <path d="M59.448 0h20.93v96.88c-10.737 2.04-18.62 2.855-27.181 2.855-25.551-.001-38.87-11.551-38.87-33.705 0-21.338 14.135-35.2 36.015-35.2 3.398 0 5.98.272 9.106 1.087zm0 48.765c-2.446-.815-4.485-1.086-7.067-1.086-10.6 0-16.717 6.523-16.717 17.939 0 11.145 5.845 17.26 16.582 17.26 2.309 0 4.212-.136 7.202-.542z"/>
    <path d="M113.672 32.321V80.84c0 16.717-1.224 24.735-4.893 31.666-3.398 6.661-7.883 10.873-17.124 15.494l-19.435-9.241c9.242-4.35 13.726-8.153 16.58-14 2.99-5.979 3.943-12.91 3.943-31.122V32.321zM92.742.111h20.93v21.474h-20.93z"/>
  </g>
</svg>
