<?xml version="1.0" encoding="UTF-8"?>
<svg version="1.1" xmlns="http://www.w3.org/2000/svg" width="225" height="225">
<path d="M0 0 C74.25 0 148.5 0 225 0 C225 74.25 225 148.5 225 225 C150.75 225 76.5 225 0 225 C0 150.75 0 76.5 0 0 Z " fill="#FDFEFE" transform="translate(0,0)"/>
<path d="M0 0 C0.98957703 -0.00846954 1.97915405 -0.01693909 2.99871826 -0.02566528 C6.25668336 -0.04898504 9.51417469 -0.0500585 12.7722168 -0.04882812 C15.0475432 -0.05593341 17.32286782 -0.06363295 19.59819031 -0.07189941 C24.3635252 -0.08533324 29.12869446 -0.08691817 33.89404297 -0.08105469 C39.98358294 -0.07516401 46.07232417 -0.10573011 52.16170979 -0.14617157 C56.86051167 -0.17209527 61.55912253 -0.17492162 66.25798607 -0.17127991 C68.50214836 -0.1729672 70.74631984 -0.1825718 72.99041176 -0.20042419 C76.13737127 -0.2227025 79.28273075 -0.21286568 82.4296875 -0.1953125 C83.34586349 -0.20857574 84.26203949 -0.22183899 85.20597839 -0.23550415 C93.12336471 -0.13353288 99.47440677 2.52283799 105.5300293 7.63085938 C106.12944336 8.345 106.72885742 9.05914062 107.34643555 9.79492188 C108.27262695 10.85839844 108.27262695 10.85839844 109.2175293 11.94335938 C113.62510598 18.3969474 114.35105642 23.68655434 114.31298828 31.32739258 C114.31985153 32.29746246 114.32671478 33.26753235 114.33378601 34.26699829 C114.35202202 37.46005066 114.34822023 40.65261006 114.3425293 43.84570312 C114.34709332 46.07618875 114.35239955 48.30667297 114.3584137 50.53715515 C114.36733908 55.20834063 114.36492891 59.8793551 114.35498047 64.55053711 C114.34350438 70.51891463 114.36368486 76.48669931 114.39289761 82.45499897 C114.41129991 87.06114924 114.41095886 91.66715858 114.40526009 96.27333641 C114.4051073 98.47282936 114.41111632 100.67233213 114.42355156 102.87178993 C114.4385319 105.95632008 114.42773162 109.03976979 114.41064453 112.12426758 C114.42514648 113.47047935 114.42514648 113.47047935 114.43994141 114.84388733 C114.33373392 124.06115307 111.31597061 131.95676199 104.93801117 138.67757607 C98.20180401 144.46188602 91.15214106 146.1632226 82.47729492 146.06689453 C81.48727982 146.07565613 80.49726471 146.08441772 79.47724915 146.09344482 C76.23526961 146.11528247 72.99467666 146.10094117 69.75268555 146.08398438 C67.48164613 146.08735698 65.21060847 146.0922133 62.9395752 146.09848022 C58.19204433 146.10583043 53.44498552 146.09520537 48.69750977 146.07177734 C42.63153249 146.04329141 36.56666155 146.05970525 30.50072479 146.08963966 C25.81475586 146.10776242 21.12904648 146.10193168 16.44306946 146.0890007 C14.20729947 146.08568047 11.97150542 146.08970472 9.73576355 146.10139847 C6.60340529 146.11418894 3.47280452 146.09461464 0.34057617 146.06689453 C-0.57088669 146.07701569 -1.48234955 146.08713684 -2.4214325 146.0975647 C-10.31526508 145.96904027 -16.67404701 143.30223465 -22.7121582 138.20898438 C-23.31157227 137.49484375 -23.91098633 136.78070313 -24.52856445 136.04492188 C-25.14602539 135.3359375 -25.76348633 134.62695312 -26.3996582 133.89648438 C-30.84523286 127.38725958 -31.53547959 122.03678467 -31.51098633 114.32885742 C-31.51945587 113.3392804 -31.52792542 112.34970337 -31.53665161 111.33013916 C-31.55997136 108.07217406 -31.56104483 104.81468274 -31.55981445 101.55664062 C-31.56691974 99.28131422 -31.57461928 97.0059896 -31.58288574 94.73066711 C-31.59631957 89.96533222 -31.5979045 85.20016296 -31.59204102 80.43481445 C-31.58615034 74.34527448 -31.61671644 68.25653325 -31.6571579 62.16714764 C-31.6830816 57.46834575 -31.68590795 52.76973489 -31.68226624 48.07087135 C-31.68395353 45.82670906 -31.69355813 43.58253758 -31.71141052 41.33844566 C-31.73368883 38.19148615 -31.72385201 35.04612667 -31.70629883 31.89916992 C-31.71956207 30.98299393 -31.73282532 30.06681793 -31.74649048 29.12287903 C-31.64451921 21.20549272 -28.98814834 14.85445065 -23.88012695 8.79882812 C-23.16598633 8.19941406 -22.4518457 7.6 -21.71606445 6.98242188 C-21.00708008 6.36496094 -20.2980957 5.7475 -19.56762695 5.11132812 C-13.05840216 0.66575347 -7.70792724 -0.02449326 0 0 Z " fill="#0FA27E" transform="translate(71.091064453125,39.580078125)"/>
<path d="M0 0 C1.90234375 1.16796875 1.90234375 1.16796875 3.8046875 2.78515625 C6.48560475 4.55246483 8.2134183 4.46761018 11.40234375 4.48046875 C19.42858415 4.99987136 26.32950961 7.67619367 32.140625 13.35546875 C38.54355132 21.20336188 39.08694828 27.57495155 38.58203125 37.51171875 C38.95979709 41.8237776 40.32602151 43.75899483 42.90234375 47.16796875 C45.13281124 53.85937121 45.1523426 62.54712339 42.84375 69.234375 C39.68854141 74.83508401 35.53511666 79.046191 29.90234375 82.16796875 C28.87109375 82.41546875 27.83984375 82.66296875 26.77734375 82.91796875 C22.63727093 84.71800041 21.66388842 87.76485642 19.53515625 91.62109375 C15.80966794 97.4321425 10.43943173 100.36743087 3.90234375 102.16796875 C-3.92263802 103.00289236 -10.53045127 102.72387197 -17.09765625 98.16796875 C-17.71125 97.636875 -18.32484375 97.10578125 -18.95703125 96.55859375 C-21.68896186 94.78383591 -23.54824295 94.80240016 -26.78515625 94.73046875 C-35.35275984 94.19825464 -42.03096244 91.37254197 -48.09765625 85.16796875 C-52.56065271 78.41904727 -54.24201881 73.62740117 -53.84765625 65.54296875 C-53.78651831 60.60098533 -54.07800295 57.42873079 -56.59765625 53.16796875 C-60.12403125 47.04215162 -60.06978528 41.05981031 -59.09765625 34.16796875 C-57.02850638 27.38626167 -53.27154982 21.7989517 -47.09765625 18.16796875 C-45.50835963 17.62254511 -43.90283014 17.12237153 -42.28515625 16.66796875 C-40.00587667 16.06463472 -40.00587667 16.06463472 -38.09765625 15.16796875 C-36.80989472 12.38971419 -36.80989472 12.38971419 -36.09765625 9.16796875 C-28.35705105 -3.49085492 -12.88231801 -6.45352207 0 0 Z " fill="#F5FBFA" transform="translate(120.09765625,62.83203125)"/>
<path d="M0 0 C0.86177449 3.59440985 1.06978372 6.43405427 0 10 C-3.39718823 13.0267783 -7.18365362 15.06581832 -11.22070312 17.09619141 C-13.88673525 18.45042452 -16.46382317 19.95906359 -19.0625 21.4375 C-24.63037602 24.51029774 -29.58265563 25.80508502 -36 25 C-42.67066251 23.03877526 -46.51399467 18.87434116 -50 13 C-51.28317892 9.15046324 -51.06643637 6.05261865 -51 2 C-44.14918646 5.31946636 -37.57016301 8.73181888 -31.25390625 12.99609375 C-28.32049034 14.30265855 -27.07223955 13.85392734 -24 13 C-21.38760065 11.70463491 -21.38760065 11.70463491 -18.76953125 10.05859375 C-17.80208984 9.47529297 -16.83464844 8.89199219 -15.83789062 8.29101562 C-14.83951172 7.67935547 -13.84113281 7.06769531 -12.8125 6.4375 C-10.82135592 5.2240076 -8.82797718 4.01417179 -6.83203125 2.80859375 C-5.95264893 2.27032959 -5.0732666 1.73206543 -4.16723633 1.17749023 C-2 0 -2 0 0 0 Z " fill="#12A37F" transform="translate(124,125)"/>
<path d="M0 0 C5.53148858 2.31088653 8.79962507 6.27963961 11.81640625 11.36328125 C13.09958517 15.21281801 12.88284262 18.3106626 12.81640625 22.36328125 C5.96559271 19.04381489 -0.61343074 15.63146237 -6.9296875 11.3671875 C-9.86310341 10.0606227 -11.1113542 10.50935391 -14.18359375 11.36328125 C-16.7959931 12.65864634 -16.7959931 12.65864634 -19.4140625 14.3046875 C-20.86522461 15.17963867 -20.86522461 15.17963867 -22.34570312 16.07226562 C-23.34408203 16.68392578 -24.34246094 17.29558594 -25.37109375 17.92578125 C-27.36223783 19.13927365 -29.35561657 20.34910946 -31.3515625 21.5546875 C-32.23094482 22.09295166 -33.11032715 22.63121582 -34.01635742 23.18579102 C-36.18359375 24.36328125 -36.18359375 24.36328125 -38.18359375 24.36328125 C-39.04500967 20.77036699 -39.24481331 17.92959122 -38.18359375 14.36328125 C-34.81962627 11.32816316 -31.04999726 9.33556242 -27.03125 7.31884766 C-25.23900656 6.39193952 -23.50596966 5.35324381 -21.77734375 4.3125 C-14.29418552 -0.13285233 -8.54821662 -2.49259268 0 0 Z " fill="#13A380" transform="translate(139.18359375,75.63671875)"/>
<path d="M0 0 C1.6328125 0.82421875 1.6328125 0.82421875 3.8828125 2.32421875 C3.8828125 2.98421875 3.8828125 3.64421875 3.8828125 4.32421875 C1.87915039 5.25268555 1.87915039 5.25268555 -0.89453125 6.2734375 C-7.41406417 9.05000027 -13.56122551 11.72479124 -18.1171875 17.32421875 C-21.20804359 27.21760566 -20.11010171 38.13978278 -19.1171875 48.32421875 C-22.0871875 46.67421875 -25.0571875 45.02421875 -28.1171875 43.32421875 C-28.21692602 39.3408157 -28.28905948 35.35790767 -28.33691406 31.37353516 C-28.36664795 29.36074248 -28.41750479 27.34829741 -28.46875 25.3359375 C-28.54930946 17.32027102 -28.50583536 10.8919045 -22.66894531 4.81689453 C-16.15155241 -0.92735264 -8.45701824 -2.69938036 0 0 Z " fill="#14A480" transform="translate(115.1171875,67.67578125)"/>
<path d="M0 0 C2.97 1.65 5.94 3.3 9 5 C9.11712011 9.47894321 9.1875608 13.95748714 9.25 18.4375 C9.28351563 19.69755859 9.31703125 20.95761719 9.3515625 22.25585938 C9.43470374 30.21663352 9.12731533 37.39697717 3.5871582 43.57568359 C-1.9165592 48.49157401 -7.19199445 49.4323717 -14.328125 49.3359375 C-18.18771197 48.85066779 -20.09048291 47.51633911 -23 45 C-20.09571358 42.33386507 -17.52884924 40.73342158 -13.828125 39.51171875 C-8.65168988 37.57690541 -4.20633494 35.67690242 -1 31 C1.52127616 20.99172096 0.67642508 10.21225567 0 0 Z " fill="#15A380" transform="translate(129,109)"/>
<path d="M0 0 C3.2596504 1.49893634 6.33896999 3.25764866 9.4375 5.0625 C10.25798828 5.51560547 11.07847656 5.96871094 11.92382812 6.43554688 C18.12883105 10.01592765 23.73081102 14.46162205 27 21 C27.69618285 28.41834188 27.57446234 34.87612299 23 41 C20.29119745 43.57666584 18.53685217 44.82104928 15 46 C15.02525757 44.86570557 15.02525757 44.86570557 15.05102539 43.70849609 C15.1014712 40.26286254 15.08264084 36.82091424 15.0625 33.375 C15.09021484 32.18519531 15.11792969 30.99539062 15.14648438 29.76953125 C15.1989368 23.37713239 15.1989368 23.37713239 12.22631836 17.99658203 C9.88891177 16.41471868 7.55457906 15.19603575 5 14 C3.53488226 13.15790484 2.07497474 12.30666278 0.62109375 11.4453125 C-0.77135489 10.66813186 -2.16587446 9.89464931 -3.5625 9.125 C-4.28501953 8.7228125 -5.00753906 8.320625 -5.75195312 7.90625 C-7.49943703 6.93413975 -9.24944295 5.96656524 -11 5 C-11 4.01 -11 3.02 -11 2 C-7.06187227 -1.24316401 -4.82083015 -1.26457057 0 0 Z " fill="#10A27F" transform="translate(130,93)"/>
<path d="M0 0 C-0.02525757 1.13429443 -0.02525757 1.13429443 -0.05102539 2.29150391 C-0.1014712 5.73713746 -0.08264084 9.17908576 -0.0625 12.625 C-0.09021484 13.81480469 -0.11792969 15.00460938 -0.14648438 16.23046875 C-0.1989368 22.62286761 -0.1989368 22.62286761 2.77368164 28.00341797 C5.11108823 29.58528132 7.44542094 30.80396425 10 32 C11.46511774 32.84209516 12.92502526 33.69333722 14.37890625 34.5546875 C15.77135489 35.33186814 17.16587446 36.10535069 18.5625 36.875 C19.28501953 37.2771875 20.00753906 37.679375 20.75195312 38.09375 C22.49943703 39.06586025 24.24944295 40.03343476 26 41 C26 41.99 26 42.98 26 44 C23.39708608 46.14357617 21.81235681 47.0330824 18.41015625 46.89453125 C13.66326874 45.64935686 9.78425295 43.39661333 5.5625 40.9375 C4.74201172 40.48439453 3.92152344 40.03128906 3.07617188 39.56445312 C-3.33458231 35.86535075 -9.58072547 31.25782358 -12 24 C-12.55216036 17.33160177 -12.48097079 11.80161799 -9 6 C-3.140625 0 -3.140625 0 0 0 Z " fill="#11A27F" transform="translate(80,86)"/>
<path d="M0 0 C2.887605 1.88274054 3.58813476 2.90334571 4.55078125 6.26171875 C4.83280666 9.95330512 4.74202495 12.69487157 3.6875 16.25 C0.78655572 19.33599513 -2.24201781 21.09719191 -6.3125 22.25 C-11.32841268 21.74535025 -15.97851743 20.13832646 -19.3125 16.25 C-20.63048453 11.65196347 -20.67395872 7.8398967 -19.3125 3.25 C-13.40896835 -3.03011716 -7.51763258 -3.68095004 0 0 Z " fill="#10A27F" transform="translate(120.3125,102.75)"/>
<path d="M0 0 C0.33 0 0.66 0 1 0 C1.103125 1.11375 1.20625 2.2275 1.3125 3.375 C1.539375 4.57125 1.76625 5.7675 2 7 C2.99 7.66 3.98 8.32 5 9 C4.34 9 3.68 9 3 9 C3.66 10.32 4.32 11.64 5 13 C5.33 11.68 5.66 10.36 6 9 C7.65 8.67 9.3 8.34 11 8 C11 9.32 11 10.64 11 12 C11.99 12 12.98 12 14 12 C14.33 10.35 14.66 8.7 15 7 C16.65 7 18.3 7 20 7 C20 6.34 20 5.68 20 5 C20.66 5 21.32 5 22 5 C22.33 4.01 22.66 3.02 23 2 C23.61294343 5.8274912 23.8590468 9.19936869 23 13 C20.09688324 15.97500346 16.96482347 17.77293055 13 19 C8.03960932 18.51605945 3.23584161 16.91292769 0 13 C-0.69958875 8.59419296 -0.46630841 4.4234534 0 0 Z " fill="#17A381" transform="translate(101,106)"/>
<path d="M0 0 C0.33 0 0.66 0 1 0 C1.01981934 0.80743652 1.03963867 1.61487305 1.06005859 2.44677734 C1.15505899 6.08985875 1.26483912 9.73234686 1.375 13.375 C1.4059375 14.64601563 1.436875 15.91703125 1.46875 17.2265625 C1.50742188 18.43828125 1.54609375 19.65 1.5859375 20.8984375 C1.6173584 22.01911621 1.6487793 23.13979492 1.68115234 24.29443359 C1.73411203 27.14710412 1.73411203 27.14710412 4 29 C4.125 32.625 4.125 32.625 4 36 C-0.89839668 36.34884724 -3.65895937 35.46792622 -7.875 33 C-8.84179688 32.443125 -9.80859375 31.88625 -10.8046875 31.3125 C-11.52914062 30.879375 -12.25359375 30.44625 -13 30 C-11.35 28.68 -9.7 27.36 -8 26 C-4.535 27.98 -4.535 27.98 -1 30 C-0.67 20.1 -0.34 10.2 0 0 Z " fill="#E2F0ED" transform="translate(96,85)"/>
<path d="M0 0 C5.28137429 0.51525603 8.57221156 2.25477117 13 5 C12.01 5.495 12.01 5.495 11 6 C11 6.66 11 7.32 11 8 C10.01 8.33 9.02 8.66 8 9 C4.535 7.02 4.535 7.02 1 5 C0.67 14.9 0.34 24.8 0 35 C-0.33 35 -0.66 35 -1 35 C-1 24.44 -1 13.88 -1 3 C-0.01 2.67 0.98 2.34 2 2 C1.34 1.34 0.68 0.68 0 0 Z " fill="#DDF0EC" transform="translate(129,105)"/>
<path d="M0 0 C0.33 0 0.66 0 1 0 C1 1.65 1 3.3 1 5 C2.98 4.34 4.96 3.68 7 3 C6.34 6.3 5.68 9.6 5 13 C1 11 1 11 0.13671875 9.16015625 C-0.08564453 8.12181641 -0.08564453 8.12181641 -0.3125 7.0625 C-0.47363281 6.37285156 -0.63476562 5.68320313 -0.80078125 4.97265625 C-1 3 -1 3 0 0 Z " fill="#1DA583" transform="translate(75,110)"/>
<path d="M0 0 C0.33 0 0.66 0 1 0 C1 3.63 1 7.26 1 11 C0.01 11 -0.98 11 -2 11 C-2 8.36 -2 5.72 -2 3 C-1.34 3 -0.68 3 0 3 C0 2.01 0 1.02 0 0 Z " fill="#27A687" transform="translate(123,108)"/>
<path d="M0 0 C2.125 0.375 2.125 0.375 4 1 C3.67 2.98 3.34 4.96 3 7 C1.68 6.67 0.36 6.34 -1 6 C-1.625 4.125 -1.625 4.125 -2 2 C-1.34 1.34 -0.68 0.68 0 0 Z " fill="#24A686" transform="translate(147,112)"/>
<path d="M0 0 C2.75 0.8125 2.75 0.8125 5 2 C3.35 3.32 1.7 4.64 0 6 C-1.32 5.01 -2.64 4.02 -4 3 C-2.3125 1.375 -2.3125 1.375 0 0 Z " fill="#E3F1EF" transform="translate(87,111)"/>
<path d="M0 0 C0.33 0 0.66 0 1 0 C1.103125 1.11375 1.20625 2.2275 1.3125 3.375 C1.539375 4.57125 1.76625 5.7675 2 7 C2.99 7.66 3.98 8.32 5 9 C4.34 9 3.68 9 3 9 C2.67 10.32 2.34 11.64 2 13 C1.34 13 0.68 13 0 13 C0 8.71 0 4.42 0 0 Z " fill="#31A889" transform="translate(101,106)"/>
<path d="M0 0 C0.66 0 1.32 0 2 0 C1.34 3.3 0.68 6.6 0 10 C-0.66 9.34 -1.32 8.68 -2 8 C-1.42307692 1.42307692 -1.42307692 1.42307692 0 0 Z " fill="#2AA989" transform="translate(80,113)"/>
<path d="M0 0 C1.65 1.65 3.3 3.3 5 5 C3.68 5 2.36 5 1 5 C0.34 3.68 -0.32 2.36 -1 1 C-0.67 0.67 -0.34 0.34 0 0 Z " fill="#E6F1EF" transform="translate(70,115)"/>
<path d="M0 0 C1.32 0 2.64 0 4 0 C4 0.66 4 1.32 4 2 C3.34 2 2.68 2 2 2 C1.67 3.65 1.34 5.3 1 7 C0.34 6.34 -0.32 5.68 -1 5 C-0.625 2.375 -0.625 2.375 0 0 Z " fill="#26A787" transform="translate(116,113)"/>
</svg>
